<svg width="1122" height="1122" viewBox="0 0 1122 1122" fill="none" xmlns="http://www.w3.org/2000/svg">
<path d="M1120.64 560.61C1120.64 562.56 1120.64 564.51 1120.63 566.45C1120.59 592.95 1120.06 618.21 1119.04 642.3C1119.02 642.87 1118.99 643.43 1118.97 643.99C1101.36 1047.93 942.92 1119.42 560.61 1120.64C178.3 1119.42 19.8601 1047.94 2.25008 643.99C2.22008 643.43 2.20008 642.87 2.18008 642.31C1.16008 618.22 0.630078 592.96 0.590078 566.45C0.590078 564.51 0.580078 562.56 0.580078 560.61C0.580078 558.66 0.580078 556.71 0.590078 554.77C0.680078 528.25 1.21008 503 2.18008 478.92C2.20008 478.35 2.23008 477.79 2.25008 477.23C19.8601 73.29 178.3 1.79999 560.61 0.579987C942.92 1.79999 1101.36 73.28 1118.97 477.23C1119 477.79 1119.02 478.35 1119.04 478.91C1120.01 502.99 1120.54 528.25 1120.63 554.77C1120.63 556.71 1120.64 558.66 1120.64 560.61Z" fill="#131D29"/>
</svg>
